<?xml version="1.0" encoding="UTF-8" standalone="no"?>
<!-- Created with Inkscape (http://www.inkscape.org/) -->

<svg
   xmlns:dc="http://purl.org/dc/elements/1.1/"
   xmlns:cc="http://creativecommons.org/ns#"
   xmlns:rdf="http://www.w3.org/1999/02/22-rdf-syntax-ns#"
   xmlns:svg="http://www.w3.org/2000/svg"
   xmlns="http://www.w3.org/2000/svg"
   xmlns:sodipodi="http://sodipodi.sourceforge.net/DTD/sodipodi-0.dtd"
   xmlns:inkscape="http://www.inkscape.org/namespaces/inkscape"
   width="10.16mm"
   height="128.5mm"
   viewBox="0 0 10.16 128.5"
   version="1.1"
   id="svg8"
   inkscape:version="0.92.4 5da689c313, 2019-01-14"
   sodipodi:docname="HighestPoint.svg">
  <defs
     id="defs2">
    <inkscape:perspective
       sodipodi:type="inkscape:persp3d"
       inkscape:vp_x="0 : 64.25 : 1"
       inkscape:vp_y="0 : 1000 : 0"
       inkscape:vp_z="71.120008 : 64.25 : 1"
       inkscape:persp3d-origin="35.560003 : 42.833333 : 1"
       id="perspective1087" />
    <clipPath
       id="clip89">
      <rect
         id="rect4864"
         height="19"
         width="18"
         x="0"
         y="0" />
    </clipPath>
    <clipPath
       id="clip90">
      <path
         id="path4861"
         d="m 0.898438,0.128906 h 16.25 v 17.882813 h -16.25 z m 0,0"
         inkscape:connector-curvature="0" />
    </clipPath>
    <mask
       id="mask44">
      <g
         transform="matrix(0.26458333,0,0,0.26458333,89.358789,128.57765)"
         id="g4858"
         style="filter:url(#alpha)">
        <rect
           id="rect4856"
           style="fill:#000000;fill-opacity:0.14999402;stroke:none"
           height="3351.5"
           width="3052.8701"
           y="0"
           x="0" />
      </g>
    </mask>
    <filter
       height="1"
       width="1"
       y="0"
       x="0"
       filterUnits="objectBoundingBox"
       id="alpha">
      <feColorMatrix
         id="feColorMatrix4149"
         values="0 0 0 0 1 0 0 0 0 1 0 0 0 0 1 0 0 0 1 0"
         in="SourceGraphic"
         type="matrix" />
    </filter>
    <clipPath
       id="clipPath17821">
      <rect
         id="rect17819"
         height="19"
         width="18"
         x="0"
         y="0" />
    </clipPath>
    <clipPath
       id="clipPath17825">
      <path
         id="path17823"
         d="m 0.898438,0.128906 h 16.25 v 17.882813 h -16.25 z m 0,0"
         inkscape:connector-curvature="0" />
    </clipPath>
    <clipPath
       id="clip87">
      <rect
         id="rect4848"
         height="26"
         width="24"
         x="0"
         y="0" />
    </clipPath>
    <clipPath
       id="clip88">
      <path
         id="path4845"
         d="m 0.683594,0.921875 h 22.679687 v 24.9375 H 0.683594 Z m 0,0"
         inkscape:connector-curvature="0" />
    </clipPath>
    <mask
       id="mask43">
      <g
         transform="matrix(0.26458333,0,0,0.26458333,89.358789,128.57765)"
         id="g4842"
         style="filter:url(#alpha)">
        <rect
           id="rect4840"
           style="fill:#000000;fill-opacity:0.14999402;stroke:none"
           height="3351.5"
           width="3052.8701"
           y="0"
           x="0" />
      </g>
    </mask>
    <filter
       height="1"
       width="1"
       y="0"
       x="0"
       filterUnits="objectBoundingBox"
       id="filter17836">
      <feColorMatrix
         id="feColorMatrix17834"
         values="0 0 0 0 1 0 0 0 0 1 0 0 0 0 1 0 0 0 1 0"
         in="SourceGraphic"
         type="matrix" />
    </filter>
    <clipPath
       id="clipPath17840">
      <rect
         id="rect17838"
         height="26"
         width="24"
         x="0"
         y="0" />
    </clipPath>
    <clipPath
       id="clipPath17844">
      <path
         id="path17842"
         d="m 0.683594,0.921875 h 22.679687 v 24.9375 H 0.683594 Z m 0,0"
         inkscape:connector-curvature="0" />
    </clipPath>
    <clipPath
       id="clipPath6367"
       clipPathUnits="userSpaceOnUse">
      <path
         inkscape:connector-curvature="0"
         id="path6365"
         d="M 0,3193 H 2089 V 0 H 0 Z" />
    </clipPath>
    <clipPath
       id="clipPath6367-0"
       clipPathUnits="userSpaceOnUse">
      <path
         inkscape:connector-curvature="0"
         id="path6365-5"
         d="M 0,3193 H 2089 V 0 H 0 Z" />
    </clipPath>
  </defs>
  <sodipodi:namedview
     id="base"
     pagecolor="#ffffff"
     bordercolor="#666666"
     borderopacity="1.0"
     inkscape:pageopacity="0.0"
     inkscape:pageshadow="2"
     inkscape:zoom="2.8222657"
     inkscape:cx="269.06447"
     inkscape:cy="197.28908"
     inkscape:document-units="mm"
     inkscape:current-layer="layer1"
     showgrid="false"
     inkscape:window-width="3840"
     inkscape:window-height="2100"
     inkscape:window-x="0"
     inkscape:window-y="60"
     inkscape:window-maximized="0"
     inkscape:snap-global="false"
     objecttolerance="21"
     inkscape:snap-path-clip="false"
     inkscape:snap-path-mask="false"
     borderlayer="true">
    <inkscape:grid
       type="xygrid"
       id="grid834"
       units="mm"
       spacingx="5.08"
       spacingy="5.08" />
  </sodipodi:namedview>
  <metadata
     id="metadata5">
    <rdf:RDF>
      <cc:Work
         rdf:about="">
        <dc:format>image/svg+xml</dc:format>
        <dc:type
           rdf:resource="http://purl.org/dc/dcmitype/StillImage" />
        <dc:title></dc:title>
      </cc:Work>
    </rdf:RDF>
  </metadata>
  <g
     inkscape:label="Layer 1"
     inkscape:groupmode="layer"
     id="layer1"
     transform="translate(0,-168.5)"
     style="display:inline">
    <path
       style="fill:#e0e1e3;fill-opacity:1;stroke:none;stroke-width:0.53912485;stroke-miterlimit:4;stroke-dasharray:none;stroke-opacity:1"
       d="m -7.427554e-4,168.50002 c 27.0933397554,0 54.1866697554,0 81.2799887554,0 0,42.83333 0,85.66666 0,128.5 -27.093319,0 -54.186649,0 -81.2799887554,0 0,-42.83334 0,-85.66667 0,-128.5 z"
       id="rect2580"
       inkscape:connector-curvature="0"
       sodipodi:insensitive="true" />
    <g
       style="font-style:normal;font-weight:normal;font-size:10.58333302px;line-height:1.25;font-family:sans-serif;letter-spacing:0px;word-spacing:0px;fill:#000000;fill-opacity:1;stroke:none;stroke-width:0.26458332"
       id="text8299" />
    <g
       style="font-style:normal;font-variant:normal;font-weight:normal;font-stretch:normal;font-size:1.76388884px;line-height:1.25;font-family:'Razer BlackWidow';-inkscape-font-specification:'Razer BlackWidow, Normal';font-variant-ligatures:normal;font-variant-caps:normal;font-variant-numeric:normal;text-align:start;letter-spacing:0px;word-spacing:0px;writing-mode:lr-tb;text-anchor:start;fill:#000000;fill-opacity:1;stroke:none;stroke-width:0.26458332"
       id="text955" />
    <g
       style="font-style:normal;font-variant:normal;font-weight:normal;font-stretch:normal;font-size:4.23333311px;line-height:1.25;font-family:'Razer BlackWidow';-inkscape-font-specification:'Razer BlackWidow, Normal';font-variant-ligatures:normal;font-variant-caps:normal;font-variant-numeric:normal;font-feature-settings:normal;text-align:start;letter-spacing:0px;word-spacing:0px;writing-mode:lr-tb;text-anchor:start;fill:#000000;fill-opacity:1;stroke:none;stroke-width:0.26458332"
       id="text959-1-2" />
    <g
       aria-label="in"
       transform="rotate(90)"
       style="font-style:normal;font-variant:normal;font-weight:300;font-stretch:normal;font-size:4.23333359px;line-height:1.25;font-family:Bahnschrift;-inkscape-font-specification:'Bahnschrift, Light';font-variant-ligatures:normal;font-variant-caps:normal;font-variant-numeric:normal;font-feature-settings:normal;text-align:center;letter-spacing:0px;word-spacing:0px;writing-mode:lr-tb;text-anchor:middle;fill:#000000;fill-opacity:1;stroke:none;stroke-width:0.26458332"
       id="text625">
      <path
         d="m 225.50085,-6.7696252 h 0.29766 v 0.2976563 h -0.29766 z m 0,0.8598959 h 0.29766 v 2.1456056 h -0.29766 z"
         style="font-size:4.23333359px;stroke-width:0.26458332"
         id="path1592" />
      <path
         d="m 226.50131,-5.9097293 h 0.29765 v 2.1456056 h -0.29765 z m 1.42627,0.8454265 q 0,-0.2852539 -0.1509,-0.4423503 -0.14883,-0.1570963 -0.42168,-0.1570963 -0.26458,0 -0.41134,0.1405599 -0.1447,0.1384928 -0.1447,0.3948079 l -0.0434,-0.4134115 q 0.11368,-0.2108398 0.30179,-0.3038574 0.1881,-0.095085 0.43614,-0.095085 0.34934,0 0.53951,0.2294433 0.19223,0.2273764 0.19223,0.6449219 v 1.3022462 h -0.29765 z"
         style="font-size:4.23333359px;stroke-width:0.26458332"
         id="path1594" />
    </g>
    <path
       style="opacity:0.39800002;fill:#68eff8;fill-opacity:1;stroke:none;stroke-width:12.07313824;stroke-linecap:butt;stroke-linejoin:miter;stroke-miterlimit:4;stroke-dasharray:12.07313813, 579.51063003;stroke-dashoffset:0;stroke-opacity:1;paint-order:normal"
       d="M -2.3437138,235.4072 H 12.656054 v 32.71824 H -2.3437138 Z"
       id="rect661" />
    <g
       aria-label="10000pt/v"
       transform="rotate(90)"
       style="font-style:normal;font-variant:normal;font-weight:300;font-stretch:normal;font-size:4.23333359px;line-height:1.25;font-family:Bahnschrift;-inkscape-font-specification:'Bahnschrift, Light';font-variant-ligatures:normal;font-variant-caps:normal;font-variant-numeric:normal;font-feature-settings:normal;text-align:center;letter-spacing:0px;word-spacing:0px;writing-mode:lr-tb;text-anchor:middle;display:inline;fill:#000000;fill-opacity:1;stroke:none;stroke-width:0.26458332"
       id="text625-3">
      <g
         aria-label="1m/v"
         style="font-style:normal;font-variant:normal;font-weight:300;font-stretch:normal;font-size:6.3499999px;line-height:1.25;font-family:Bahnschrift;-inkscape-font-specification:'Bahnschrift, Light';font-variant-ligatures:normal;font-variant-caps:normal;font-variant-numeric:normal;font-feature-settings:normal;text-align:center;letter-spacing:0px;word-spacing:0px;writing-mode:lr-tb;text-anchor:middle;fill:#000000;fill-opacity:1;stroke:none;stroke-width:0.07000434"
         id="text1189">
        <path
           d="m 253.53198,-4.2361507 h -0.29766 v -2.7533202 l -0.5519,0.3451985 V -6.956398 l 0.42788,-0.2852539 h 0.42168 z"
           style="font-size:4.23333311px;stroke-width:0.07000434"
           id="path1211" />
        <path
           d="m 256.92195,-5.5363297 q 0,-0.2852539 -0.13642,-0.4423502 -0.13643,-0.1570964 -0.38447,-0.1570964 -0.25012,0 -0.38861,0.1529622 -0.13643,0.1529623 -0.13643,0.4299479 l -0.12609,-0.3100585 q 0.10336,-0.2666504 0.28732,-0.4072103 0.18397,-0.142627 0.44235,-0.142627 0.23358,0 0.39895,0.1033529 0.16743,0.1012858 0.25424,0.2976562 0.0868,0.1963705 0.0868,0.4733561 v 1.3022461 h -0.29766 z m -2.68717,-0.8454264 h 0.29766 v 2.1456054 h -0.29766 z m 1.34359,0.8454264 q 0,-0.2852539 -0.13643,-0.4423502 -0.13436,-0.1570964 -0.38447,-0.1570964 -0.25012,0 -0.38861,0.142627 -0.13642,0.1405598 -0.13642,0.398942 l -0.0434,-0.4134114 q 0.10749,-0.214974 0.28112,-0.3100586 0.17363,-0.095085 0.40514,-0.095085 0.22118,0 0.37827,0.1033529 0.15917,0.1012858 0.23978,0.2976562 0.0827,0.1963705 0.0827,0.4733561 v 1.3022461 h -0.29765 z"
           style="font-size:4.23333311px;stroke-width:0.07000434"
           id="path1213" />
        <path
           d="m 257.80872,-3.665643 h -0.27905 l 1.47794,-3.9315427 h 0.27906 z"
           style="font-size:4.23333311px;stroke-width:0.07000434"
           id="path1215" />
        <path
           d="m 260.84936,-6.3817561 h 0.31626 l -0.84749,2.1456054 h -0.23565 l -0.84749,-2.1456054 h 0.31626 l 0.64906,1.7590657 z"
           style="font-size:4.23333311px;stroke-width:0.07000434"
           id="path1217" />
      </g>
    </g>
    <path
       style="opacity:0.39800002;fill:#68f879;fill-opacity:1;stroke:none;stroke-width:12.97379684;stroke-linecap:butt;stroke-linejoin:miter;stroke-miterlimit:4;stroke-dasharray:12.97379693, 622.74225292;stroke-dashoffset:0;stroke-opacity:1;paint-order:normal"
       d="M -0.84373707,272.43787 H 11.906066 v 21.74966 H -0.84373707 Z"
       id="rect663" />
    <g
       aria-label="thru"
       transform="rotate(90)"
       style="font-style:normal;font-variant:normal;font-weight:300;font-stretch:normal;font-size:4.23333359px;line-height:1.25;font-family:Bahnschrift;-inkscape-font-specification:'Bahnschrift, Light';font-variant-ligatures:normal;font-variant-caps:normal;font-variant-numeric:normal;font-feature-settings:normal;text-align:center;letter-spacing:0px;word-spacing:0px;writing-mode:lr-tb;text-anchor:middle;display:inline;fill:#000000;fill-opacity:1;stroke:none;stroke-width:0.26458332"
       id="text625-7">
      <path
         d="m 284.68275,-3.7692913 q -0.26045,0 -0.38241,-0.142627 -0.11989,-0.144694 -0.11989,-0.4258138 v -2.2117514 h 0.29766 v 2.2158855 q 0,0.1384929 0.062,0.2129069 0.062,0.074414 0.18397,0.074414 h 0.20257 v 0.2769857 z m -0.72347,-2.1559409 h 0.96738 v 0.2563151 h -0.96738 z"
         style="font-size:4.23333359px;stroke-width:0.26458332"
         id="path1564" />
      <path
         d="m 285.50544,-6.7851281 h 0.29765 v 3.0055015 h -0.29765 z m 1.42627,1.7053224 q 0,-0.2852539 -0.1509,-0.4423503 -0.14883,-0.1570964 -0.42168,-0.1570964 -0.26458,0 -0.41134,0.1405599 -0.1447,0.1384929 -0.1447,0.394808 l -0.0434,-0.4134115 q 0.11368,-0.2108398 0.30179,-0.3038574 0.1881,-0.095085 0.43615,-0.095085 0.34933,0 0.5395,0.2294434 0.19223,0.2273763 0.19223,0.6449219 v 1.3022462 h -0.29765 z"
         style="font-size:4.23333359px;stroke-width:0.26458332"
         id="path1566" />
      <path
         d="m 287.87015,-5.9252322 h 0.29766 v 2.1456056 h -0.29766 z m 1.26297,0.3844727 q -0.0661,-0.068213 -0.16743,-0.1033529 -0.0992,-0.03514 -0.23151,-0.03514 -0.26872,0 -0.41754,0.144694 -0.14883,0.142627 -0.14883,0.3968751 l -0.0434,-0.4134115 q 0.11782,-0.1922364 0.30799,-0.2976563 0.19224,-0.107487 0.41961,-0.107487 0.14677,0 0.26459,0.043408 0.11989,0.041341 0.20877,0.1240235 z"
         style="font-size:4.23333359px;stroke-width:0.26458332"
         id="path1568" />
      <path
         d="m 291.09476,-5.9252322 h 0.29559 v 2.1456056 h -0.29559 z m -1.12034,1.3043132 q 0,0.2831869 0.14676,0.4402833 0.14676,0.1550293 0.41548,0.1550293 0.26665,0 0.41134,-0.142627 0.14676,-0.142627 0.14676,-0.4030762 l 0.0289,0.4485515 q -0.0786,0.1591634 -0.26045,0.2666504 -0.17983,0.107487 -0.44442,0.107487 -0.35553,0 -0.54983,-0.2273764 -0.19224,-0.2294433 -0.19224,-0.6449219 v -1.3043132 h 0.29766 z"
         style="font-size:4.23333359px;stroke-width:0.26458332"
         id="path1570" />
    </g>
    <g
       aria-label="HighestPoint"
       transform="rotate(90)"
       style="font-style:normal;font-variant:normal;font-weight:300;font-stretch:normal;font-size:7.76111126px;line-height:1.25;font-family:Bahnschrift;-inkscape-font-specification:'Bahnschrift, Light';font-variant-ligatures:normal;font-variant-caps:normal;font-variant-numeric:normal;font-feature-settings:normal;text-align:center;letter-spacing:0px;word-spacing:0px;writing-mode:lr-tb;text-anchor:middle;fill:#000000;fill-opacity:1;stroke:none;stroke-width:0.26458332"
       id="text1185">
      <path
         d="m 174.44029,-8.0350462 h 0.44649 v 4.5082522 h -0.44649 z m -2.74712,0 h 0.44649 v 4.5082522 h -0.44649 z m 0.30076,2.0649904 h 2.68821 v 0.4309814 h -2.68821 z"
         style="font-size:6.35000038px;stroke-width:0.26458332"
         id="path1221" />
      <path
         d="m 176.03399,-8.0350462 h 0.44649 v 0.4464844 h -0.44649 z m 0,1.2898438 h 0.44649 v 3.2184084 h -0.44649 z"
         style="font-size:6.35000038px;stroke-width:0.26458332"
         id="path1223" />
      <path
         d="m 178.61368,-2.2183466 q -0.36587,0 -0.65112,-0.1364258 -0.28526,-0.1333252 -0.44339,-0.3782715 v 0 l 0.30386,-0.2728516 v 0 q 0.14573,0.1891358 0.35037,0.2914551 0.20464,0.1054199 0.43098,0.1054199 0.44958,0 0.69763,-0.2511474 0.24805,-0.2480469 0.24805,-0.7007325 v -3.184302 h 0.44648 v 3.1222903 q 0,0.4433838 -0.16433,0.7596436 -0.16123,0.3162598 -0.47129,0.4805908 -0.31006,0.1643311 -0.74724,0.1643311 z m -0.0589,-1.2619386 q -0.35037,0 -0.60151,-0.1519287 -0.25115,-0.1550293 -0.38138,-0.4464844 -0.13022,-0.2914551 -0.13022,-0.7007325 v -0.7007324 q 0,-0.4154786 0.12712,-0.7100342 0.12713,-0.2945557 0.36897,-0.4464844 0.24495,-0.1550293 0.58601,-0.1550293 0.36897,0 0.64493,0.1395263 0.27905,0.1364258 0.44648,0.449585 l -0.0651,0.6201172 q 0,-0.2108398 -0.0992,-0.3999756 -0.0961,-0.1891357 -0.28215,-0.306958 -0.18604,-0.1178223 -0.43719,-0.1178223 -0.40307,0 -0.62321,0.2449463 -0.22015,0.2418458 -0.22015,0.6852296 v 0.6976318 q 0,0.4340821 0.22015,0.6759278 0.22014,0.2387452 0.62321,0.2387452 0.24805,0 0.43409,-0.1209229 0.18603,-0.1209229 0.28525,-0.3131592 0.0992,-0.1953369 0.0992,-0.4061768 l 0.0434,0.6728272 q -0.12093,0.2945557 -0.38448,0.4247803 -0.26355,0.127124 -0.65422,0.127124 z"
         style="font-size:6.35000038px;stroke-width:0.26458332"
         id="path1225" />
      <path
         d="m 180.95772,-8.0350462 h 0.44649 v 4.5082522 h -0.44649 z m 2.13941,2.5579836 q 0,-0.4278809 -0.22635,-0.6635255 -0.22324,-0.2356445 -0.63251,-0.2356445 -0.39688,0 -0.61702,0.2108399 -0.21704,0.2077392 -0.21704,0.5922119 l -0.0651,-0.6201172 q 0.17053,-0.3162598 0.45268,-0.4557862 0.28215,-0.1426269 0.65422,-0.1426269 0.524,0 0.80926,0.344165 0.28835,0.3410645 0.28835,0.9673829 v 1.9533692 h -0.44648 z"
         style="font-size:6.35000038px;stroke-width:0.26458332"
         id="path1227" />
      <path
         d="m 185.82254,-3.4802852 q -0.44648,0 -0.76274,-0.1674316 -0.31626,-0.1705323 -0.48369,-0.4929932 -0.16433,-0.3255616 -0.16433,-0.7813477 v -0.3627686 q 0,-0.4774903 0.15813,-0.8154541 0.16123,-0.3379639 0.46508,-0.5146973 0.30386,-0.1767334 0.73174,-0.1767334 0.40308,0 0.68833,0.1736328 0.28526,0.1736328 0.43408,0.5084961 0.15193,0.3317627 0.15193,0.7999512 v 0.3689698 h -2.32544 v -0.4030762 h 1.90996 v -0.031006 q 0,-0.4774902 -0.22634,-0.7379395 -0.22324,-0.2635498 -0.63252,-0.2635498 -0.44958,0 -0.69453,0.2759522 -0.24495,0.2759521 -0.24495,0.7813477 v 0.4092773 q 0,0.4836915 0.26045,0.7503419 0.26045,0.2635498 0.73484,0.2635498 0.22325,0 0.44029,-0.093018 0.22014,-0.093018 0.39067,-0.2635498 v 0 l 0.30386,0.2914551 v 0 q -0.23565,0.2294434 -0.5333,0.3565674 -0.29766,0.1240234 -0.60152,0.1240234 z"
         style="font-size:6.35000038px;stroke-width:0.26458332"
         id="path1229" />
      <path
         d="m 189.01615,-3.4802852 q -0.26045,0 -0.5054,-0.049609 -0.24494,-0.05271 -0.45888,-0.1519288 -0.21084,-0.099219 -0.37518,-0.2387451 v 0 l 0.25735,-0.3131592 v 0 q 0.26355,0.1767334 0.54571,0.2759522 0.28215,0.096118 0.5364,0.096118 0.46199,0 0.71313,-0.1581299 0.25425,-0.1581298 0.25425,-0.4464844 0,-0.2108398 -0.12402,-0.3162597 -0.12093,-0.10542 -0.30696,-0.142627 -0.18604,-0.037207 -0.5178,-0.062012 -0.031,-0.0031 -0.0651,-0.0031 -0.031,-0.0031 -0.062,-0.0062 -0.0124,0 -0.0248,0 -0.0124,-0.0031 -0.0248,-0.0031 -0.31936,-0.031006 -0.5333,-0.093018 -0.21394,-0.062012 -0.35967,-0.232544 -0.14263,-0.1705322 -0.14263,-0.4929932 0,-0.3100586 0.14883,-0.5270996 0.15193,-0.2170411 0.44028,-0.3317628 0.29146,-0.1147216 0.69764,-0.1147216 0.21084,0 0.42168,0.043408 0.21083,0.040308 0.40307,0.1209228 0.19534,0.077515 0.35657,0.1891358 v 0 l -0.25735,0.306958 v 0 q -0.22944,-0.1333252 -0.47749,-0.2046387 -0.24805,-0.074414 -0.46509,-0.074414 -0.40617,0 -0.62942,0.1519288 -0.22324,0.1519287 -0.22324,0.4278809 0,0.1922363 0.12092,0.2883545 0.12093,0.093018 0.30386,0.1240234 0.18604,0.031006 0.5085,0.049609 0.0124,0 0.0248,0.0031 0.0155,0 0.0279,0 0.009,0 0.0186,0 0.009,0 0.0186,0.0031 0.33797,0.018604 0.57361,0.083716 0.23875,0.065112 0.39998,0.2573486 0.16123,0.1922364 0.16123,0.5550049 0,0.3131592 -0.16123,0.5333009 -0.16123,0.2201416 -0.47129,0.3379638 -0.31006,0.1147217 -0.74724,0.1147217 z"
         style="font-size:6.35000038px;stroke-width:0.26458332"
         id="path1231" />
      <path
         d="m 192.03922,-3.511291 q -0.39068,0 -0.57361,-0.2139405 -0.17983,-0.217041 -0.17983,-0.6387207 v -3.3176272 h 0.44648 v 3.3238284 q 0,0.2077392 0.093,0.3193603 0.093,0.1116211 0.27595,0.1116211 h 0.30386 v 0.4154786 z m -1.08521,-3.2339114 h 1.45108 v 0.3844727 h -1.45108 z"
         style="font-size:6.35000038px;stroke-width:0.26458332"
         id="path1233" />
      <path
         d="m 193.66083,-5.6910031 h 1.44177 q 0.26355,0 0.46509,-0.1209228 0.20153,-0.1209229 0.31005,-0.3379639 0.11163,-0.217041 0.11163,-0.502295 v 0 q 0,-0.2883545 -0.11163,-0.5053955 -0.10852,-0.2201416 -0.31005,-0.3410645 -0.20154,-0.1209228 -0.46509,-0.1209228 h -1.44177 v -0.4154786 h 1.42006 q 0.40308,0 0.71004,0.1736328 0.30696,0.1705323 0.47439,0.4836915 0.17053,0.3131592 0.17053,0.7255371 v 0 q 0,0.4092774 -0.17053,0.7224366 -0.16743,0.3100586 -0.47439,0.4836914 -0.30696,0.1705323 -0.71004,0.1705323 h -1.42006 z m -0.32557,-2.3440431 h 0.44649 v 4.5082522 h -0.44649 z"
         style="font-size:6.35000038px;stroke-width:0.26458332"
         id="path1235" />
      <path
         d="m 198.18148,-3.4802852 q -0.41858,0 -0.71624,-0.164331 -0.29765,-0.1643311 -0.45578,-0.4774903 -0.15503,-0.3162598 -0.15503,-0.7596436 v -0.523999 q 0,-0.4371827 0.15503,-0.7472413 0.15813,-0.3131592 0.45578,-0.4743897 0.29766,-0.164331 0.71624,-0.164331 0.41858,0 0.71624,0.164331 0.29765,0.1612305 0.45268,0.4743897 0.15813,0.3100586 0.15813,0.7472413 v 0.5333008 q 0,0.4402832 -0.15813,0.7534424 -0.15503,0.3100586 -0.45268,0.4743897 -0.29766,0.164331 -0.71624,0.164331 z m -0.003,-0.4154785 q 0.42168,0 0.65112,-0.2542481 0.23255,-0.2573486 0.23255,-0.7224365 v -0.5333008 q 0,-0.4619874 -0.23255,-0.7162354 -0.22944,-0.2542481 -0.65112,-0.2542481 -0.41858,0 -0.64802,0.2542481 -0.22945,0.254248 -0.22945,0.7162354 v 0.5333008 q 0,0.4650879 0.22945,0.7224365 0.22944,0.2542481 0.64802,0.2542481 z"
         style="font-size:6.35000038px;stroke-width:0.26458332"
         id="path1237" />
      <path
         d="m 200.50072,-8.0350462 h 0.44648 v 0.4464844 h -0.44648 z m 0,1.2898438 h 0.44648 v 3.2184084 h -0.44648 z"
         style="font-size:6.35000038px;stroke-width:0.26458332"
         id="path1239" />
      <path
         d="m 202.0014,-6.7452024 h 0.44649 v 3.2184084 h -0.44649 z m 2.13941,1.2681398 q 0,-0.4278809 -0.22635,-0.6635255 -0.22324,-0.2356445 -0.63252,-0.2356445 -0.39687,0 -0.61701,0.2108399 -0.21704,0.2077392 -0.21704,0.5922119 l -0.0651,-0.6201172 q 0.17054,-0.3162598 0.45269,-0.4557862 0.28215,-0.1426269 0.65422,-0.1426269 0.524,0 0.80926,0.344165 0.28835,0.3410645 0.28835,0.9673829 v 1.9533692 h -0.44648 z"
         style="font-size:6.35000038px;stroke-width:0.26458332"
         id="path1241" />
      <path
         d="m 206.38563,-3.511291 q -0.39067,0 -0.57361,-0.2139405 -0.17983,-0.217041 -0.17983,-0.6387207 v -3.3176272 h 0.44648 v 3.3238284 q 0,0.2077392 0.093,0.3193603 0.093,0.1116211 0.27595,0.1116211 h 0.30386 v 0.4154786 z m -1.0852,-3.2339114 h 1.45107 v 0.3844727 h -1.45107 z"
         style="font-size:6.35000038px;stroke-width:0.26458332"
         id="path1243" />
    </g>
  </g>
  <g
     inkscape:label="components"
     id="g3297"
     inkscape:groupmode="layer"
     style="display:none">
    <circle
       style="display:inline;opacity:1;fill:#00ff00;fill-opacity:1;stroke:none;stroke-width:0.5213756;stroke-miterlimit:4;stroke-dasharray:none;stroke-opacity:1"
       id="path1619-9-3-88"
       cx="5.1768255"
       cy="50.712624"
       inkscape:label="points"
       r="1.7995" />
    <circle
       style="display:inline;opacity:1;fill:#0000ff;fill-opacity:1;stroke:none;stroke-width:0.5213756;stroke-miterlimit:4;stroke-dasharray:none;stroke-opacity:1"
       id="path1619-9-3-88-0-3"
       cx="5.5853639"
       cy="73.107048"
       inkscape:label="height"
       r="1.7995" />
    <circle
       style="display:inline;opacity:1;fill:#0000ff;fill-opacity:1;stroke:none;stroke-width:0.5213756;stroke-miterlimit:4;stroke-dasharray:none;stroke-opacity:1"
       id="path1619-9-3-88-0-3-9"
       cx="4.8686996"
       cy="109.40237"
       inkscape:label="points"
       r="1.7995" />
  </g>
</svg>
